<?xml version="1.0" encoding="UTF-8"?><svg id="Layer_1" xmlns="http://www.w3.org/2000/svg" viewBox="0 0 753.16 50"><defs><style>.cls-1{fill:#ffc94f;}</style></defs><path class="cls-1" d="M658.46,46.69c-3.29,0-6.52-.05-9.1-.13l-.42-.02c-1.28-.07-1.8-.14-1.8-.56,0-.32,.16-.41,.38-.51l.12-.05c.24-.11,.41-.26,.5-.47,.09-.22,.07-.48-.06-.79l-5.14-12.66v-.09l-.18-.15-.11-.02h-13.35c-.29,.05-.37,.25-.41,.33l-3.27,8.87c-.53,1.39-.84,2.72-.84,3.65,0,.83,.64,1.3,1.77,1.3h.52c.69,0,.79,.41,.79,.65,0,.54-.57,.65-1.05,.65-.77,0-2.07-.06-3.21-.11h-.21c-.8-.05-1.48-.08-1.74-.08-.16,0-.49,.02-.93,.04l-.47,.02c-1.16,.05-2.92,.14-4.42,.14-1.31,0-1.31-.49-1.31-.65,0-.35,.34-.65,.72-.65s1.22-.06,1.67-.13c2.4-.3,3.5-1.98,4.68-4.96l13.54-34.7c.69-1.74,.99-2.28,1.56-2.28s.81,.49,1.23,1.44c.09,.21,.2,.44,.32,.7,.49,1.11,2.79,6.76,5.46,13.3l.28,.68c2.93,7.2,6.25,15.36,8.06,19.68,2.17,5.14,3.74,5.63,4.78,5.95,.9,.28,1.78,.32,2.23,.32,.55,0,.92,.26,.92,.65,0,.59-1.05,.65-1.5,.65m-23.02-33.48l-5.41,15.34h11.76l-6.04-16.11-.31,.77Z"/><path class="cls-1" d="M310.73,46.17c-2.39,0-5.07-.11-6.36-.17-.42-.02-.69-.03-.77-.03-.05,0-.92,.04-.92,.04-1.49,.07-3.6,.16-4.77,.16-1.11,0-1.11-.46-1.11-.65,0-.26,.17-.65,.65-.65,.41,0,.97-.09,1.65-.25,1-.22,1.21-1.08,1.42-2.83,.26-2.27,.26-6.47,.26-11.78v-5.67h-24.26v5.67c0,5.35,0,9.58,.26,11.85,.19,1.61,.37,2.52,1.93,2.76,.92,.14,2.1,.26,2.59,.26s.65,.39,.65,.65c0,.2-.11,.65-1.11,.65-2.53,0-5.42-.12-6.5-.17,0,0-.59-.03-.63-.03-.07,0-1.05,.04-1.05,.04-1.11,.05-3.43,.15-4.71,.15-.74,0-1.11-.22-1.11-.65,0-.26,.17-.65,.66-.65,.51,0,1.22-.13,1.72-.25,.91-.22,1.07-.96,1.33-2.62l.03-.16c.32-2.27,.32-6.55,.32-11.97v-9.78c0-8.62,0-10.17-.13-11.92-.12-1.77-.38-2.64-2.18-2.89-.45-.06-1.43-.13-1.93-.13-.31,0-.65-.35-.65-.65,0-.18,0-.65,1.11-.65,1.85,0,4.17,.07,5.57,.11,0,0,.98,.03,1.04,.03,.07,0,.41,0,.89-.02,1.27-.04,3.54-.11,4.8-.11,1.11,0,1.11,.48,1.11,.65,0,.31-.35,.65-.66,.65-.38,0-.76,0-1.4,.13-1.44,.3-1.74,1.02-1.87,2.89-.07,1.75-.07,3.53-.07,12.05v1.3h24.26s0-1.3,0-1.3c0-8.52-.07-10.29-.13-12.01-.13-1.9-.36-2.69-2.12-2.93-.46-.06-1.43-.13-1.93-.13-.41,0-.66-.38-.66-.65,0-.18,0-.65,1.11-.65,1.83,0,4.27,.07,5.59,.11,0,0,.89,.03,.95,.03,.09,0,1.35-.04,1.35-.04,1.29-.04,3.23-.1,4.34-.1,1.18,0,1.18,.49,1.18,.65,0,.32-.36,.65-.72,.65-.38,0-.7,0-1.4,.13-1.4,.3-1.67,.99-1.8,2.89-.13,1.75-.13,3.31-.13,11.92v9.78c0,4.25,.04,9.45,.32,11.98,.21,1.75,.37,2.53,1.93,2.76,.83,.14,2.1,.26,2.52,.26,.49,0,.72,.34,.72,.65s-.31,.65-1.18,.65"/><path class="cls-1" d="M475.34,46.46c-3.47,0-6.26-.08-8.51-.15l-1.5-.05c-2.42-.13-3.89-.13-4.77-.13-.29,0-1.33,0-2.48,.07-1.49,.09-2.58,.13-3.34,.13s-1.12-.22-1.12-.65c0-.32,.25-.65,.66-.65,.31,0,.72-.08,1.09-.15,.27-.05,.48-.09,.66-.11,.88-.15,1.04-.94,1.3-2.57l.03-.2c.32-2.26,.32-6.55,.32-11.97v-9.78c0-8.61,0-10.17-.13-11.92-.12-1.77-.38-2.64-2.18-2.89-.45-.06-1.43-.13-1.94-.13-.31,0-.65-.35-.65-.65,0-.18,0-.65,1.11-.65,1.92,0,4.42,.07,5.76,.11,.51,.02,.82,.02,.91,.02h1.05c1.82,.01,5.63,.03,8.63,.03,2.31,0,3.67,0,4.04-.03,.89-.05,1.74-.19,2.24-.27l.36-.06c.08-.02,.12-.04,.16-.06l.09-.04c.17-.08,.35-.16,.55-.16,.29,0,.46,.27,.46,.72,0,.17-.05,.36-.11,.62-.12,.45-.27,1.04-.35,2.01-.02,.18-.05,.56-.08,1.03l-.02,.33c-.07,.9-.14,1.92-.22,2.32-.09,.36-.35,.74-.72,.74-.3,0-.66-.16-.66-.91,0-.38-.07-1.27-.31-1.88-.34-.8-.82-1.18-3.96-1.57-.94-.13-7.18-.19-8.09-.19h-.32s0,15.77,0,15.77l.31,.08c1.91,0,8.22,0,9.41-.13h.12c1.29-.13,2.06-.21,2.58-.73l.23-.23c.35-.36,.54-.54,.76-.54,.16,0,.53,.06,.53,.65,0,.13-.04,.3-.09,.57-.12,.56-.28,1.34-.37,2.52-.13,1.13-.26,3.2-.26,3.57,0,.57-.19,1.24-.72,1.24-.29,0-.59-.19-.59-.72s0-1.07-.25-1.76c-.16-.64-.52-1.3-2.78-1.57-1.54-.19-7.52-.26-8.55-.26h-.32s0,4.82,0,4.82c0,.53-.01,2.67-.01,2.67-.02,2.68-.03,6,.01,6.77,.13,3.61,1.12,4.25,6.67,4.25,1.47,0,4.21,0,5.68-.57,1.29-.56,2.15-1.37,2.49-3.7,.13-.67,.29-1.01,.78-1.01s.59,.57,.59,1.04c0,.39-.46,4.21-.79,5.4-.43,1.58-1.12,1.58-3.39,1.58"/><path class="cls-1" d="M348.07,46.92c-15.59,0-22.69-11.4-22.69-21.98,0-9.07,7.14-21.85,23.02-21.85,13.73,0,22.95,8.44,22.95,21s-10.01,22.83-23.28,22.83m0-41.35c-10.24,0-16.35,6.68-16.35,17.87,0,12.45,7.23,20.81,17.98,20.81,2.57,0,15.37-.9,15.37-18.59,0-13.88-8.54-20.09-17-20.09"/><path class="cls-1" d="M709.93,46.76c-.69,0-1.37-.56-4.52-3.44-.55-.49-8.78-8.56-14.99-15.01-5.41-5.66-11.4-11.93-13.99-14.72l-.56-.61,.64,25.62c.12,4.39,.59,5.77,2.07,6.14,1.02,.25,2.3,.32,2.83,.32,.37,0,.66,.29,.66,.65,0,.43-.42,.65-1.24,.65-2.33,0-4.13-.1-5.21-.15h-.23c-.3-.03-.52-.04-.64-.04-.13,0-.39,.01-.75,.03h-.22c-.88,.06-2.7,.16-4.59,.16-.79,0-1.11-.19-1.11-.65,0-.37,.29-.65,.66-.65,.44,0,1.48-.07,2.29-.32,1.31-.35,1.5-1.75,1.5-6.73V6.25c0-2.1,.29-3,.98-3,.6,0,1.34,.71,2.11,1.5l.25,.26c.28,.28,1.26,1.31,2.74,2.85l.62,.65c3.37,3.54,9.02,9.45,14.83,15.41,3.66,3.78,7.47,7.81,10.26,10.76l2.99,3.16-.58-27.28c-.07-3.71-.46-4.68-2-4.96-1.03-.19-2.34-.26-2.78-.26-.41,0-.66-.27-.66-.72,0-.42,.38-.59,1.31-.59,1.81,0,3.73,.06,4.75,.1,.59,.02,1.04,.03,1.26,.03,.19,0,.47-.01,.84-.03h.24c.77-.04,2.2-.11,3.83-.11,.87,0,1.24,.18,1.24,.59,0,.29-.33,.72-.85,.72-.26,0-.7,0-1.33,.13-1.69,.35-1.87,1.25-1.87,4.63l-.13,32.48c0,3.65-.04,4.18-.65,4.18"/><path class="cls-1" d="M584.3,46.92c-15.59,0-22.69-11.4-22.69-21.98,0-9.07,7.14-21.85,23.02-21.85,13.73,0,22.96,8.44,22.96,21s-10.01,22.83-23.28,22.83m0-41.35c-10.24,0-16.35,6.68-16.35,17.87,0,12.45,7.23,20.81,17.98,20.81,2.57,0,15.37-.9,15.37-18.59,0-13.88-8.54-20.09-17-20.09"/><path class="cls-1" d="M547.09,46.23c-4.07,0-7.26-.06-10.02-.2l-1.69-.04c-1.78-.05-3.2-.08-4.46-.08-.94,0-1.72,.02-2.45,.06-1.26,.07-2.46,.13-3.35,.13-.74,0-1.11-.22-1.11-.65,0-.32,.24-.65,.65-.65,.52,0,1.23-.13,1.72-.25,.91-.21,1.07-.96,1.33-2.62l.02-.16c.32-2.26,.32-6.54,.32-11.97v-9.78c0-8.61,0-10.17-.13-11.92-.13-1.93-.48-2.65-2.18-2.89-.45-.06-1.43-.13-1.93-.13-.31,0-.66-.35-.66-.65,0-.18,0-.65,1.11-.65,1.92,0,4.35,.07,5.66,.11,.49,.02,.8,.02,.88,.02,.04,0,1.01-.03,1.01-.03,1.71-.05,4.12-.1,5.33-.1,.74,0,1.11,.22,1.11,.65,0,.32-.36,.59-.65,.59-.39,0-1.26,.07-1.88,.13-1.54,.29-1.85,1.03-1.98,2.95-.06,1.75-.06,3.31-.06,11.92v9.92c0,7.66,.11,11.38,1.11,12.32,.88,.87,3.13,1.25,7.52,1.25,3.17,0,5.51-.12,6.78-1.63,.64-.75,1.12-1.86,1.33-3.04,.09-.55,.38-.88,.78-.88s.59,.35,.59,1.04c0,.6-.4,3.95-.86,5.6-.44,1.47-.84,1.64-3.85,1.64"/><path class="cls-1" d="M738.45,46.95c-1.57,0-5.54-.15-8.46-1.52-.89-.44-.96-.75-.96-2.26,0-2.2,.17-4.05,.27-5.16l.06-.72c0-.46,.09-.78,.25-.94,.1-.1,.24-.15,.4-.15,.27,0,.72,.11,.72,.85,0,.45,0,1.21,.19,1.97,.89,3.93,5.18,5.33,8.9,5.33,5.2,0,8.43-2.75,8.43-7.17,0-3.81-1.97-5.63-7.18-9.5l-2.62-1.96c-5.91-4.4-8.32-7.89-8.32-12.03,0-6.46,5.08-10.63,12.95-10.63,2.38,0,4.66,.34,6,.66,1.09,.25,1.52,.25,1.98,.25,.58,0,.78,.15,.78,.59,0,.06,0,.18-.03,.39-.07,.79-.23,2.55-.23,5.48,0,.93-.1,1.44-.66,1.44-.49,0-.64-.32-.72-.89-.07-.66-.53-2.14-.83-2.67-.07-.12-1.65-2.64-7.28-2.64-3.44,0-7.46,1.52-7.46,5.8,0,3.37,1.52,5.27,7.37,9.23l1.64,1.11c6.75,4.59,9.5,8.52,9.5,13.53,0,4.04-1.83,7.27-5.45,9.62-2.04,1.32-5.15,1.99-9.26,1.99"/><path class="cls-1" d="M439.96,46.56c-1.27,0-7.69-.13-9.83-.33-1.34-.13-1.81-.33-1.81-.78,0-.28,.17-.52,.45-.62l.15-.05,.04-.15c.04-.15,.13-.6,0-1.56l-2.7-27.58-13.67,27.91c-1.18,2.43-1.55,3.05-2.2,3.05s-1.01-.59-2.13-2.64c-1.54-2.79-5.31-9.87-6.74-12.86-.53-1.09-1.34-2.75-2.24-4.58l-.04-.09c-1.53-3.12-3.44-7-4.46-9.19l-.49-1.05-2.2,24.75c-.06,.84-.06,1.88-.06,2.79s.66,1.25,1.22,1.37c.89,.24,1.73,.32,2.18,.32,.3,0,.66,.27,.66,.59,0,.18,0,.72-1.24,.72-1.43,0-3.11-.09-4.22-.14l-.38-.02c-.38-.02-.65-.03-.77-.03-.14,0-.44,.02-.84,.04l-.45,.02c-1.07,.06-2.54,.14-3.55,.14-.78,0-1.18-.24-1.18-.72,0-.32,.36-.59,.79-.59s.76-.05,1.47-.16l.19-.03c1.59-.28,1.78-1.88,2-3.73l4.25-36.73c.08-.7,.41-1.15,.85-1.15,.4,0,.96,.17,1.35,.96l17.22,34.08,16.57-34.02c.25-.49,.56-1.02,1.09-1.02,.69,0,.95,.91,1.05,1.67l3.92,34.05c.25,2.49,.77,4.9,2.81,5.58,1.6,.51,3.1,.51,3.67,.51,.4,0,.65,.23,.65,.59,0,.5-.69,.72-1.37,.72"/><path class="cls-1" d="M223.39,13.32c-2.97,0-5.3-2.29-5.3-5.2s2.38-5.14,5.3-5.14,5.27,2.26,5.27,5.14-2.31,5.2-5.27,5.2m0-9.52c-2.35,0-4.18,1.89-4.18,4.31s1.81,4.31,4.21,4.31,4.12-1.88,4.12-4.28-1.79-4.34-4.15-4.34"/><path class="cls-1" d="M224.7,10.75c-.1-.16-.18-.49-.28-.86l-.09-.33c-.1-.63-.47-.92-1.2-.92h-.69v2.11h-.99V5.71c.5-.09,1.16-.14,1.9-.14,.95,0,1.38,.14,1.77,.37,.21,.17,.46,.54,.46,1.05s-.39,.92-1.01,1.11l-.08,.02v.23l.07,.03c.47,.18,.74,.54,.89,1.2,.12,.61,.21,.95,.31,1.17h-1.06Zm-1.44-4.55c-.37,0-.6,.04-.7,.07l-.09,.02v1.71h.69c.83,0,1.33-.33,1.33-.89,0-.58-.45-.92-1.23-.92"/><path class="cls-1" d="M150.93,47.03c-.97,0-1.31-.87-2.33-3.44l-13.84-34.64c-1.21-3.08-1.9-3.51-3.72-4.03-.77-.21-1.69-.21-1.99-.21-.57,0-.93-.33-.93-.87,0-.73,.68-.87,1.93-.87,1.74,0,3.73,.07,5.04,.12h.38c.56,.03,.94,.05,1.14,.05,.12,0,.35-.01,.65-.02l.52-.02c1.12-.05,2.65-.12,4.04-.12,.65,0,1.99,0,1.99,.87,0,.32-.14,.87-1.04,.87-.84,0-1.6,.09-1.93,.24-.37,.17-.44,.38-.44,.68,0,.63,.7,2.45,1.44,4.37l10.37,27.64,.22-.53c3.63-8.66,10.21-25.93,11.26-29.38,.21-.62,.48-1.51,.48-1.99,0-.41-.16-.71-.46-.86-.54-.18-1.33-.18-1.91-.18-.95,0-1.09-.51-1.09-.82,0-.77,.68-.93,1.71-.93,1.48,0,3.1,.07,4.17,.12h.3c.46,.03,.82,.05,1.02,.05,.08,0,.28-.01,.56-.03h.25c.91-.06,2.42-.14,3.56-.14,.97,0,1.43,.29,1.43,.87,0,.32-.15,.87-1.15,.87-.37,0-1.48,0-2.43,.6-.61,.42-1.43,1.35-2.89,5.03-.45,1.14-2.07,5.06-3.96,9.6l-2.83,6.81c-3.38,8.09-5.51,13.19-6.71,15.75-.38,.81-.68,1.47-.92,2.02-.84,1.88-1.13,2.51-1.86,2.51"/><path class="cls-1" d="M40.07,47.59c-.65,0-1.2-.52-4.36-3.79-.68-.63-8.67-9.12-14.33-15.44-5.02-5.62-9.86-11.17-13.03-14.84l-.42-.48,.68,25.91c.11,4.74,.72,5.82,1.81,6.16,.93,.25,2.08,.32,2.6,.32,.63,0,.92,.43,.92,.82s-.15,.93-1.47,.93c-2.16,0-3.88-.08-4.9-.13h-.17c-.36-.03-.62-.04-.75-.04-.14,0-.44,.01-.91,.04-.92,.05-2.65,.13-4.38,.13-1.22,0-1.36-.53-1.36-.93s.29-.82,.92-.82c.54,0,1.42-.08,2.1-.32,1.05-.31,1.33-1.7,1.33-6.77l.05-32.61c0-1.64,0-3.33,1.09-3.33,.51,0,1.03,.55,1.82,1.45l.11,.12c.13,.15,.25,.29,.36,.4,.81,.95,8.68,9.77,17.45,19.53,2.71,3.01,5.61,6.31,7.94,8.96l.43,.49c1.45,1.65,2.62,2.99,3.52,4l.41,.46-.57-27.64c-.06-4.07-.59-4.63-1.79-4.95-.95-.22-2.2-.27-2.56-.27-.59,0-.92-.31-.92-.88,0-.62,.46-.88,1.57-.88,1.66,0,3.39,.08,4.54,.13h.29c.44,.03,.74,.04,.9,.04,.21,0,.55-.02,.99-.05,1.04-.06,2.26-.13,3.69-.13,1.01,0,1.47,.27,1.47,.88,0,.42-.34,.88-1.09,.88-.27,0-.6,0-1.19,.16-1.41,.31-1.67,1.04-1.67,4.6l-.11,33.35c0,3.84-.07,4.52-.98,4.52"/><path class="cls-1" d="M227.06,47.03c-3.2,0-6.33-.04-8.8-.11h-.27c-1.27-.08-1.88-.18-1.88-.87,0-.15,.05-.64,.67-.83l.1-.03,.04-.09c.06-.13,.1-.37-.05-.78l-5.21-13.79h-12.14s-3.4,10.02-3.4,10.02c-.48,1.34-.76,2.65-.76,3.6,0,.86,1.11,1.14,1.65,1.14h.56c.94,0,1.04,.57,1.04,.82,0,.35-.17,.93-1.32,.93-.78,0-2-.06-2.8-.1h-.16c-.51-.04-1.14-.07-1.41-.07-.22,0-.75,.02-1.27,.04h-.04c-1.12,.04-3.18,.13-5.02,.13-1.07,0-1.54-.29-1.54-.93,0-.47,.41-.82,.98-.82,.37,0,1.13-.05,1.56-.11,2.22-.29,3.26-2.03,4.31-4.95l12.71-34.76c.63-1.73,.94-2.5,1.68-2.5s1.07,.75,1.68,2.32c.23,.59,1.05,2.71,2.37,6.17l.17,.43c3.03,7.92,8.11,21.18,10.5,27.14,2.12,5.25,3.79,5.73,4.5,5.93,.79,.26,1.58,.32,2.11,.32,.86,0,1.04,.44,1.04,.82,0,.81-1,.93-1.6,.93m-26.5-19.49h10l-5.19-14.76-4.81,14.76Z"/><path class="cls-1" d="M87.1,0c-8.22,0-15.52,3.97-20.08,10.1,4.03-4.35,9.8-7.08,16.2-7.08,12.19,0,22.08,9.88,22.08,22.08s-9.88,22.08-22.08,22.08c-6.02,0-11.47-2.41-15.45-6.31,4.59,5.58,11.54,9.15,19.33,9.15,13.81,0,25-11.19,25-25S100.91,0,87.1,0"/></svg>